<svg width="250" height="250" viewBox="0 0 250 250" fill="none" xmlns="http://www.w3.org/2000/svg">
<path d="M94.9996 100.003V105.003C97.7574 105.003 99.9996 107.245 99.9996 110.003H105C105 104.489 100.514 100.003 94.9996 100.003Z" fill="#689F38"/>
<path d="M135.731 96.7719L139.266 93.2362L144.265 98.235L140.73 101.771L135.731 96.7719Z" fill="#689F38"/>
<path d="M174.999 127.503H184.999V132.503H174.999V127.503Z" fill="#689F38"/>
<path d="M65 127.503H74.9999V132.503H65V127.503Z" fill="#689F38"/>
<path d="M174.999 152.503H184.999V157.503H174.999V152.503Z" fill="#689F38"/>
<path d="M65 152.503H74.9999V157.503H65V152.503Z" fill="#689F38"/>
<path d="M174.999 177.502H184.999V182.502H174.999V177.502Z" fill="#689F38"/>
<path d="M65 177.502H74.9999V182.502H65V177.502Z" fill="#689F38"/>
<path d="M142.499 165.002C142.499 163.62 141.379 162.502 139.999 162.502C134.86 162.502 130.557 164.448 127.499 167.837V163.85C129.947 162.132 134.999 157.927 134.999 152.503C134.999 145.757 127.174 140.888 126.282 140.358C125.491 139.886 124.509 139.886 123.719 140.358C122.824 140.888 114.999 145.757 114.999 152.503C114.999 157.925 120.052 162.13 122.499 163.85V167.837C119.441 164.448 115.139 162.502 109.999 162.502C108.62 162.502 107.499 163.62 107.499 165.002C107.499 175.795 113.554 183.587 122.499 184.813V190.002H127.499V184.813C136.444 183.587 142.499 175.795 142.499 165.002ZM137.322 167.752C136.582 173.405 133.501 178.54 127.674 179.74C128.366 174.333 131.184 168.958 137.322 167.752ZM125.002 145.523C127.029 147.033 129.999 149.827 129.999 152.503C129.999 155.16 127.022 157.965 124.997 159.483C122.969 157.972 119.999 155.178 119.999 152.503C119.999 149.845 122.977 147.041 125.002 145.523ZM112.677 167.752C118.814 168.958 121.632 174.335 122.324 179.74C116.497 178.54 113.419 173.402 112.677 167.752Z" fill="#689F38"/>
<path d="M192.499 115.003H189.839C189.139 109.428 186.121 104.249 181.399 100.546C182.121 98.7654 182.499 96.8827 182.499 95.0033C182.499 87.7131 177.269 81.6286 170.366 80.2857C170.281 79.288 170.151 78.2936 169.991 77.3058C178.461 76.0882 184.998 68.8036 184.998 60.0034V57.5034C184.998 56.1206 183.878 55.0035 182.499 55.0035H179.999C173.714 55.0035 168.094 58.356 165.003 63.4956C163.166 60.3383 161.136 57.7503 159.331 55.8037L155.667 59.2031C158.074 61.8002 160.934 65.6585 162.957 70.6707C163.572 72.193 164.096 73.8481 164.517 75.5904C164.521 75.6127 164.539 75.6305 164.545 75.6551C164.722 76.3973 164.902 77.1372 165.035 77.9196C165.162 78.6696 165.242 79.424 165.319 80.1818C160.199 80.9318 155.92 84.2666 153.848 88.8269C149.902 84.8404 144.479 82.5032 138.749 82.5032C138.544 82.5032 138.342 82.5133 137.969 82.5378C137.82 82.5211 137.592 82.5032 137.499 82.5032C137.142 82.5032 136.794 82.5657 136.441 82.5903C137.749 80.2176 139.262 78.1652 140.849 76.3884C140.863 76.3739 140.887 76.3683 140.901 76.3504L141.194 76.0201C141.396 75.7902 141.597 75.5603 141.799 75.3527C141.799 75.3527 141.799 75.3505 141.801 75.3505C144.2 72.8628 146.698 70.9677 148.839 69.6128L146.166 65.3909C145.089 66.0739 143.92 66.9009 142.726 67.8261C142.849 65.0036 142.441 60.8139 139.379 56.6968C136.649 53.024 126.149 50.6823 122.994 50.0517C121.794 49.8017 120.595 50.4792 120.161 51.6265C119.807 52.574 116.804 61.0392 120.206 66.9389C123.536 72.7111 129.259 74.2268 131.411 74.7994L134.811 75.9221C133.418 77.8094 132.138 79.9244 131.023 82.2792C128.425 80.8205 125.507 80.0036 122.5 80.0036C114.385 80.0036 107.562 85.5638 105.592 93.0683C102.514 91.1386 98.8926 90.0034 94.9998 90.0034C89.7253 90.0034 84.6997 92.1586 80.9977 95.7979C80.9051 94.0234 81.2131 92.3851 81.828 90.7557C81.9352 90.4711 82.0557 90.1887 82.1807 89.9053C83.4385 87.0627 85.6058 84.1699 88.3535 80.5305L89.4997 79.0037L85.4997 76.0038L84.3569 77.5183C83.2074 79.0406 82.1192 80.4902 81.1215 81.9156C79.0624 77.8365 74.875 75.004 69.9999 75.004H67.4999C66.1205 75.004 65 76.1212 65 77.504V80.0039C65 86.4513 69.925 91.7115 76.1973 92.3709C75.9171 94.0138 75.8725 95.7315 76.1348 97.5786C75.7575 97.5518 75.3825 97.5038 74.9997 97.5038C66.7275 97.5038 59.9999 104.231 59.9999 112.504C59.9999 113.346 60.0903 114.179 60.2298 115.004H57.4999C53.3648 115.004 50 118.368 50 122.504V137.503C50 139.431 50.7522 141.173 51.9498 142.503C50.7522 143.834 50 145.576 50 147.503V162.503C50 164.431 50.7522 166.173 51.9498 167.503C50.7522 168.833 50 170.576 50 172.503V187.503C50 191.638 53.3648 195.003 57.4999 195.003H107.065C112.317 198.156 118.44 200.003 125 200.003C131.56 200.003 137.683 198.156 142.935 195.003H192.5C196.635 195.003 200 191.638 200 187.503V172.503C200 170.576 199.248 168.833 198.05 167.503C199.25 166.173 200 164.43 200 162.503V147.503C200 145.576 199.248 143.834 198.05 142.503C199.25 141.173 200 139.431 200 137.503V122.504C200 118.368 196.635 115.004 192.5 115.004L192.499 115.003ZM69.9999 80.0035C74.135 80.0035 77.4998 83.3683 77.4998 87.5034C73.3648 87.5034 69.9999 84.1386 69.9999 80.0035ZM179.999 60.0037C179.999 66.4388 175.112 71.7513 168.854 72.4287C168.553 71.4186 168.231 70.4365 167.874 69.4956C169.239 63.9554 174.229 60.0034 179.999 60.0034L179.999 60.0037ZM165.457 85.2154C165.394 86.6752 165.274 88.1351 165.034 89.5948L169.967 90.4095C170.239 88.7722 170.374 87.135 170.447 85.4944C174.517 86.7634 177.499 90.5212 177.499 95.0032C177.499 96.7609 177.017 98.4651 176.066 100.068C175.381 101.223 175.731 102.713 176.858 103.443C181.248 106.285 184.05 110.405 184.798 115.003H145.21V114.991C145.22 114.926 145.245 114.861 145.258 114.795C145.387 114.08 145.566 113.378 145.793 112.688C145.877 112.43 145.992 112.186 146.093 111.934C146.282 111.446 146.478 110.962 146.715 110.492C146.858 110.212 147.02 109.939 147.181 109.667C147.426 109.244 147.679 108.827 147.961 108.425C148.151 108.153 148.354 107.887 148.561 107.625C148.862 107.242 149.179 106.872 149.513 106.512C149.743 106.264 149.976 106.016 150.223 105.78C150.588 105.427 150.976 105.095 151.373 104.77C151.631 104.56 151.881 104.345 152.151 104.145C152.608 103.808 153.096 103.5 153.588 103.199C153.836 103.047 154.068 102.883 154.326 102.74C155.09 102.314 155.888 101.925 156.729 101.59C157.983 101.088 158.614 99.6772 158.148 98.4105C157.721 97.2431 157.516 96.1426 157.509 95.0534C157.523 94.9484 157.549 94.6962 157.551 94.6203C157.551 94.6058 157.547 94.5924 157.547 94.5779C157.746 89.9528 161.06 86.1326 165.458 85.2152L165.457 85.2154ZM132.691 69.9633C130.937 69.4979 126.824 68.4086 124.534 64.4388C123.109 61.9712 123.592 58.0617 124.226 55.4412C129.176 56.6186 134.443 58.4457 135.361 59.6788C138.349 63.6934 137.768 67.8707 137.52 69.6564C137.507 69.7736 137.499 69.8886 137.499 70.0035V71.5359L133.189 70.1006L132.691 69.9633ZM122.499 85.0034C124.862 85.0034 127.154 85.7032 129.142 86.9587C128.34 89.4766 127.787 92.0815 127.513 94.7489L132.485 95.2612C132.735 92.8461 133.235 90.489 133.977 88.221C135.124 87.7757 136.289 87.5034 137.37 87.4989C137.525 87.5213 137.867 87.5469 138.027 87.5436L138.749 87.5034C144.329 87.5034 149.531 90.4008 152.499 95.1162C152.499 95.1508 152.509 95.1865 152.511 95.2211C152.526 96.0961 152.616 96.9834 152.801 97.874C151.868 98.3438 150.984 98.8717 150.136 99.4365C149.848 99.6262 149.592 99.8438 149.316 100.047C148.774 100.442 148.236 100.839 147.733 101.272C147.433 101.53 147.163 101.807 146.878 102.077C146.443 102.492 146.013 102.91 145.616 103.349C145.344 103.652 145.092 103.967 144.836 104.282C144.476 104.728 144.128 105.177 143.804 105.645C143.572 105.982 143.354 106.323 143.141 106.67C142.846 107.15 142.574 107.639 142.318 108.137C142.135 108.494 141.958 108.855 141.796 109.222C141.566 109.742 141.368 110.27 141.183 110.805C141.056 111.172 140.921 111.537 140.813 111.915C140.65 112.485 140.53 113.065 140.418 113.647C140.347 114.004 140.26 114.357 140.21 114.72C140.198 114.815 140.168 114.907 140.155 115.002L114.35 115.001C114.364 114.941 114.37 114.88 114.384 114.824C114.54 114.206 114.657 113.584 114.752 112.956C114.78 112.773 114.822 112.594 114.844 112.412C114.941 111.616 114.999 110.814 114.999 110.003C114.999 109.35 114.961 108.703 114.902 108.061C114.882 107.862 114.848 107.666 114.822 107.466C114.767 107.027 114.707 106.587 114.622 106.154C114.58 105.934 114.522 105.719 114.473 105.504C114.38 105.099 114.281 104.694 114.16 104.297C114.095 104.081 114.023 103.874 113.953 103.662C113.823 103.272 113.682 102.884 113.527 102.502C113.445 102.297 113.354 102.097 113.267 101.895C113.102 101.522 112.925 101.155 112.735 100.792C112.63 100.593 112.525 100.395 112.412 100.2C112.217 99.8572 112.013 99.5201 111.797 99.1875C111.668 98.9855 111.535 98.7846 111.398 98.5871C111.186 98.2846 110.963 97.99 110.733 97.6976C110.568 97.4877 110.406 97.2802 110.233 97.077C110.16 96.9922 110.095 96.8996 110.021 96.8148C110.379 90.2388 115.84 85.0034 122.499 85.0034ZM65 112.503C65 106.989 69.4854 102.503 74.9999 102.503C75.8972 102.503 76.7744 102.671 77.6394 102.911C78.0568 103.955 78.5289 105.028 79.1248 106.165C80.3826 108.56 82.3848 110.578 85.0722 112.157L87.6068 107.845C85.734 106.744 84.3714 105.397 83.5542 103.84C83.1692 103.103 82.8422 102.403 82.5464 101.723C85.3422 97.5154 89.9292 95.0032 94.9994 95.0032C99.3397 95.0032 103.245 96.8681 105.985 99.8234C106.212 100.069 106.44 100.313 106.648 100.571C106.777 100.731 106.895 100.901 107.02 101.069C107.18 101.284 107.345 101.496 107.493 101.718C107.638 101.936 107.767 102.166 107.902 102.394C108.009 102.577 108.124 102.756 108.225 102.944C108.364 103.206 108.487 103.479 108.612 103.749C108.689 103.914 108.772 104.076 108.842 104.244C108.962 104.534 109.064 104.835 109.167 105.131C109.221 105.291 109.287 105.448 109.336 105.611C109.431 105.919 109.504 106.234 109.576 106.549C109.614 106.712 109.663 106.874 109.697 107.039C109.761 107.366 109.804 107.702 109.85 108.036C109.87 108.194 109.902 108.349 109.917 108.506C109.971 108.999 109.999 109.499 109.999 110.003C109.999 110.745 109.919 111.478 109.809 112.205C109.777 112.42 109.743 112.635 109.699 112.85C109.572 113.503 109.404 114.15 109.187 114.785C109.162 114.858 109.132 114.93 109.106 115.003H65.3211C65.1057 114.186 64.9986 113.348 64.9986 112.503L65 112.503ZM55.0001 122.503C55.0001 121.124 56.1229 120.003 57.5001 120.003H192.499C193.876 120.003 194.998 121.124 194.998 122.503V137.503C194.998 138.882 193.876 140.003 192.499 140.003H149.459C149.261 139.811 149.046 139.642 148.844 139.455C148.257 138.907 147.669 138.36 147.046 137.852C146.584 137.475 146.099 137.137 145.621 136.787C145.216 136.489 144.823 136.18 144.406 135.9C143.706 135.43 142.98 135.005 142.25 134.59C142.025 134.46 141.808 134.318 141.581 134.193C140.72 133.727 139.839 133.31 138.943 132.92C138.814 132.862 138.689 132.795 138.556 132.741C137.621 132.345 136.669 132.003 135.701 131.693C135.581 131.655 135.469 131.606 135.349 131.568C134.413 131.277 133.461 131.043 132.502 130.832C132.329 130.794 132.161 130.739 131.987 130.705C131.067 130.52 130.134 130.39 129.197 130.277C128.969 130.25 128.749 130.203 128.522 130.18C127.362 130.065 126.185 130.003 124.999 130.003C123.814 130.003 122.637 130.065 121.475 130.18C121.247 130.203 121.027 130.253 120.8 130.277C119.862 130.39 118.927 130.52 118.01 130.705C117.834 130.739 117.667 130.795 117.495 130.832C116.535 131.042 115.582 131.277 114.648 131.568C114.527 131.606 114.416 131.652 114.295 131.693C113.328 132.003 112.376 132.345 111.44 132.741C111.308 132.795 111.186 132.863 111.053 132.92C110.158 133.31 109.275 133.725 108.416 134.193C108.186 134.318 107.971 134.46 107.746 134.59C107.016 135.007 106.291 135.43 105.591 135.9C105.174 136.18 104.781 136.49 104.376 136.787C103.898 137.14 103.414 137.477 102.951 137.852C102.328 138.36 101.741 138.907 101.153 139.455C100.953 139.642 100.735 139.81 100.538 140.003H57.501C56.1238 140.003 55.001 138.882 55.001 137.503L55.0001 122.503ZM194.998 147.503V162.503C194.998 163.882 193.876 165.002 192.499 165.002H159.999C159.999 163.922 159.934 162.85 159.836 161.787C159.806 161.462 159.763 161.144 159.725 160.822C159.633 160.059 159.518 159.302 159.378 158.549C159.318 158.227 159.261 157.904 159.191 157.584C158.993 156.674 158.763 155.774 158.496 154.887C158.463 154.776 158.438 154.664 158.405 154.554C158.095 153.566 157.732 152.596 157.338 151.641C157.223 151.361 157.09 151.091 156.968 150.816C156.67 150.147 156.353 149.484 156.01 148.834C155.843 148.512 155.67 148.195 155.492 147.879C155.15 147.274 154.787 146.681 154.407 146.097C154.218 145.802 154.037 145.502 153.837 145.214C153.789 145.143 153.75 145.071 153.7 145.002L192.499 145.003C193.877 145.003 194.999 146.123 194.999 147.503L194.998 147.503ZM95.5911 146.098C95.2138 146.682 94.8489 147.275 94.5063 147.88C94.3288 148.195 94.1558 148.515 93.9884 148.835C93.648 149.485 93.331 150.148 93.0308 150.817C92.908 151.092 92.7786 151.362 92.6603 151.642C92.263 152.598 91.9025 153.567 91.5933 154.555C91.5587 154.665 91.5353 154.777 91.5029 154.888C91.2351 155.775 91.0051 156.675 90.8076 157.585C90.7373 157.905 90.6826 158.228 90.6201 158.55C90.4806 159.303 90.3623 160.061 90.273 160.823C90.2351 161.145 90.1904 161.462 90.1625 161.788C90.0654 162.85 90.0007 163.922 90.0007 165.002H57.5011C56.1239 165.002 55.0011 163.882 55.0011 162.502V147.503C55.0011 146.123 56.1239 145.003 57.5011 145.003H96.2978C96.2498 145.073 96.2074 145.145 96.1605 145.215C95.9596 145.503 95.7799 145.803 95.5902 146.097L95.5911 146.098ZM57.5001 190.003C56.1229 190.003 55.0001 188.882 55.0001 187.503V172.503C55.0001 171.124 56.1229 170.003 57.5001 170.003H90.3883C90.4028 170.1 90.4284 170.193 90.443 170.291C91.1628 175.003 92.8157 179.404 95.2209 183.303C95.231 183.318 95.241 183.335 95.251 183.351C95.7287 184.123 96.2332 184.876 96.7711 185.609C96.8236 185.681 96.876 185.748 96.9285 185.821C97.4564 186.531 98.001 187.224 98.5814 187.891C98.6238 187.939 98.6684 187.984 98.7086 188.031C99.3034 188.708 99.9084 189.373 100.551 190.003L57.5001 190.003ZM108.968 190.318C101.01 185.267 95.8331 176.681 95.1176 167.313C95.0585 166.548 94.9982 165.783 94.9982 165.003C94.9982 163.999 95.0507 163.005 95.1478 162.025C95.1824 161.668 95.2527 161.318 95.3029 160.961C95.3877 160.343 95.4659 159.723 95.5853 159.118C95.6679 158.705 95.7851 158.303 95.8855 157.896C96.015 157.361 96.1377 156.823 96.2951 156.301C96.4279 155.868 96.5897 155.446 96.7426 155.021C96.9123 154.541 97.0752 154.059 97.2672 153.588C97.4547 153.138 97.6701 152.701 97.8799 152.258C98.0774 151.838 98.2672 151.413 98.4848 151.005C98.7392 150.525 99.025 150.06 99.3073 149.592C99.5149 149.25 99.7125 148.9 99.9323 148.565C100.275 148.044 100.648 147.544 101.023 147.044C101.215 146.787 101.398 146.524 101.6 146.274C102.037 145.73 102.509 145.204 102.987 144.687C103.154 144.508 103.312 144.317 103.485 144.139C104.049 143.557 104.644 143.01 105.247 142.48C105.402 142.342 105.549 142.195 105.707 142.06C106.235 141.615 106.787 141.21 107.336 140.806C107.604 140.61 107.859 140.398 108.134 140.211C108.507 139.956 108.899 139.735 109.279 139.501C109.751 139.209 110.215 138.901 110.705 138.634C110.742 138.614 110.779 138.599 110.815 138.579C115.043 136.301 119.871 135.003 124.998 135.003C130.125 135.003 134.953 136.301 139.181 138.578C139.219 138.598 139.256 138.613 139.291 138.633C139.781 138.901 140.243 139.207 140.717 139.5C141.099 139.738 141.489 139.955 141.862 140.21C142.136 140.397 142.39 140.609 142.66 140.805C143.212 141.21 143.765 141.615 144.289 142.059C144.449 142.194 144.594 142.341 144.749 142.479C145.352 143.009 145.944 143.556 146.511 144.138C146.684 144.316 146.842 144.503 147.009 144.686C147.489 145.204 147.959 145.729 148.396 146.273C148.596 146.523 148.781 146.788 148.973 147.043C149.348 147.543 149.723 148.043 150.064 148.563C150.284 148.898 150.481 149.249 150.689 149.591C150.971 150.059 151.256 150.524 151.511 151.004C151.729 151.414 151.919 151.837 152.116 152.256C152.324 152.698 152.541 153.136 152.729 153.587C152.921 154.054 153.084 154.539 153.253 155.02C153.403 155.445 153.568 155.867 153.701 156.3C153.861 156.822 153.981 157.36 154.111 157.895C154.211 158.302 154.328 158.705 154.411 159.117C154.531 159.722 154.608 160.342 154.693 160.959C154.741 161.314 154.81 161.665 154.848 162.024C154.945 163.005 154.998 163.998 154.998 165.003C154.998 165.783 154.938 166.548 154.877 167.313C154.162 176.68 148.984 185.268 141.027 190.318C136.385 193.267 130.895 195.003 124.998 195.003C119.101 195.003 113.611 193.267 108.968 190.318ZM194.998 187.503C194.998 188.882 193.876 190.003 192.499 190.003H149.448C150.09 189.373 150.698 188.708 151.29 188.031C151.333 187.983 151.377 187.938 151.417 187.891C151.998 187.224 152.54 186.531 153.07 185.821C153.123 185.751 153.177 185.681 153.228 185.609C153.762 184.877 154.268 184.127 154.748 183.351C154.758 183.337 154.768 183.319 154.778 183.303C157.185 179.404 158.838 175.003 159.556 170.291C159.57 170.194 159.596 170.101 159.611 170.003H192.499C193.876 170.003 194.999 171.124 194.999 172.503L194.998 187.503Z" fill="#689F38"/>
</svg>
