<svg width="250" height="250" viewBox="0 0 250 250" fill="none" xmlns="http://www.w3.org/2000/svg">
<path d="M90.0002 125.001H106.466L113.234 131.769C113.7 132.239 114.335 132.501 115 132.501H152.5C156.635 132.501 160 129.136 160 125.001C160 123.074 159.248 121.332 158.051 120.001C159.25 118.671 160 116.929 160 115.001C160 113.074 159.248 111.332 158.051 110.001C159.25 108.671 160 106.929 160 105.001C160 103.062 159.24 101.309 158.028 99.9734C158.988 98.9432 159.668 97.6687 159.901 96.2414C160.258 94.0438 159.643 91.8216 158.216 90.1442C156.788 88.4668 154.706 87.5014 152.5 87.5014H135.97L137.373 83.2916C137.456 83.0361 137.5 82.7693 137.5 82.5015V72.1266C137.5 66.8186 133.18 62.5015 127.873 62.5015C123.599 62.5015 119.793 65.372 118.619 69.4815L115.328 81.0038L106.668 87.5015H90.0005C88.6177 87.5015 87.5005 88.622 87.5005 90.0015V122.501C87.5005 123.881 88.6177 125.001 90.0005 125.001L90.0002 125.001ZM119 84.5012C119.438 84.1742 119.755 83.7133 119.905 83.1887L123.428 70.8561C123.992 68.8807 125.82 67.5013 127.873 67.5013C130.425 67.5013 132.5 69.576 132.5 72.1264V82.0964L130.13 89.2113C129.872 89.9736 130.002 90.8117 130.472 91.4635C130.942 92.1164 131.698 92.5014 132.5 92.5014H152.5C153.236 92.5014 153.93 92.8218 154.408 93.3842C154.89 93.9512 155.087 94.6822 154.966 95.4389C154.775 96.5963 153.577 97.5014 152.232 97.5014H137.5V102.501H152.5C153.88 102.501 155 103.624 155 105.001C155 106.379 153.88 107.501 152.5 107.501H137.5V112.501H152.5C153.88 112.501 155 113.624 155 115.001C155 116.379 153.88 117.501 152.5 117.501H137.5V122.501H152.5C153.88 122.501 155 123.624 155 125.001C155 126.379 153.88 127.501 152.5 127.501H116.035L110 121.467V91.2526L119 84.5012ZM92.5002 92.5012H105V120.001H92.5002V92.5012Z" fill="#689F38"/>
<path d="M197.5 180.001H181.845C182.54 178.436 182.92 176.739 182.92 175.001C182.92 168.381 177.747 162.947 171.23 162.526C169.492 158.848 166.54 155.963 162.978 154.246C175.427 142.881 182.5 127.006 182.5 110C182.5 76.9143 155.583 50 122.5 50C89.4174 50 62.4999 76.9151 62.4999 110C62.4999 124.597 67.7219 138.393 77.2645 149.323C70.3594 146.283 63.6919 145.097 63.3471 145.038C62.6741 144.921 61.9821 145.083 61.4341 145.49C60.8839 145.895 60.5268 146.508 60.4386 147.186C60.356 147.835 58.4509 163.216 63.2734 171.286C65.1562 174.436 67.6709 177.401 70.606 180.004L52.5 180.003C51.1172 180.003 50 181.123 50 182.503C50 192.152 57.8526 200.003 67.5 200.003H182.5C192.147 200.003 200 192.152 200 182.503C200 181.121 198.883 180.001 197.5 180.001L197.5 180.001ZM167.22 165.906C167.595 166.987 168.706 167.674 169.785 167.576L170.42 167.501C174.555 167.501 177.92 170.866 177.92 175.001C177.92 176.872 177.23 178.616 175.96 180.001H164.515C164.045 179.834 163.549 179.821 163.075 180.001H152.807C152.802 179.953 152.792 179.909 152.787 179.862C152.754 179.525 152.694 179.194 152.649 178.859C152.582 178.357 152.514 177.857 152.42 177.362C152.337 176.932 152.234 176.509 152.132 176.087C152.039 175.704 151.946 175.323 151.837 174.944C151.704 174.484 151.559 174.031 151.404 173.582C151.291 173.257 151.174 172.934 151.049 172.614C150.866 172.146 150.678 171.684 150.474 171.227C150.345 170.939 150.204 170.66 150.065 170.374C149.835 169.909 149.605 169.446 149.349 168.997C149.206 168.747 149.051 168.507 148.902 168.261C148.619 167.799 148.339 167.334 148.031 166.888C147.914 166.719 147.781 166.558 147.658 166.388C146.836 165.256 145.946 164.176 144.963 163.181C144.963 163.179 144.965 163.176 144.965 163.176C145.01 163.109 145.066 163.049 145.11 162.981C145.381 162.584 145.668 162.201 145.981 161.841C146.108 161.694 146.251 161.561 146.386 161.422C146.634 161.16 146.886 160.902 147.156 160.664C147.321 160.519 147.493 160.386 147.666 160.249C147.929 160.041 148.196 159.839 148.474 159.652C148.662 159.527 148.854 159.406 149.049 159.291C149.331 159.122 149.622 158.964 149.92 158.816C150.122 158.715 150.325 158.618 150.532 158.528C150.845 158.393 151.162 158.278 151.484 158.171C151.69 158.1 151.892 158.028 152.099 157.971C152.456 157.87 152.825 157.798 153.192 157.729C153.375 157.696 153.552 157.648 153.734 157.624C154.288 157.546 154.85 157.501 155.42 157.501C156.089 157.501 156.784 157.566 157.532 157.693C161.955 158.456 165.707 161.559 167.22 165.906L167.22 165.906ZM90.8457 180.001C90.646 179.796 90.4484 179.594 90.2531 179.368C90.0332 179.116 89.8156 178.866 89.6036 178.59C89.3257 178.233 89.0589 177.848 88.7911 177.455C88.5712 177.133 88.3513 176.813 88.1415 176.47C87.896 176.07 87.6638 175.645 87.4317 175.22C87.2219 174.835 87.0087 174.458 86.8089 174.055C86.5935 173.619 86.3937 173.165 86.194 172.712C86.0042 172.282 85.8067 171.859 85.6292 171.414C85.4395 170.942 85.2743 170.454 85.1013 169.969C84.9417 169.519 84.771 169.074 84.6259 168.614C84.4607 168.092 84.3234 167.559 84.1805 167.029C84.06 166.589 83.9283 166.154 83.8234 165.712C83.6783 165.097 83.5712 164.482 83.4562 163.865C83.3892 163.5 83.3011 163.133 83.2464 162.768C83.0968 161.786 82.9841 160.806 82.9216 159.843C82.8736 159.101 82.8971 158.295 82.9886 157.433C82.9886 157.425 82.9886 157.419 82.9908 157.411C83.0834 156.544 83.2453 155.621 83.4785 154.643C83.483 154.618 83.4785 154.595 83.483 154.57C83.7107 153.625 83.993 152.671 84.32 151.72C84.3401 151.675 84.3703 151.635 84.3848 151.587C86.1749 146.44 89.1528 141.45 90.9451 138.69C92.4997 140.052 94.7553 142.172 97.0222 144.757C97.1896 144.946 97.3548 145.127 97.52 145.321C97.5423 145.349 97.5646 145.376 97.5869 145.404C101.619 150.146 105.517 156.331 105.424 162.458C105.416 162.864 105.396 163.273 105.369 163.684C105.009 164.067 104.68 164.469 104.347 164.867C104.289 164.937 104.227 165.002 104.17 165.072C102.492 167.11 101.137 169.352 100.119 171.74C100.087 171.815 100.059 171.893 100.029 171.967C99.7388 172.665 99.4787 173.373 99.2488 174.095C99.1908 174.272 99.1383 174.45 99.0858 174.629C98.8983 175.262 98.7332 175.902 98.5903 176.552C98.5401 176.78 98.4876 177.002 98.443 177.232C98.318 177.885 98.2209 178.544 98.1405 179.21C98.116 179.417 98.0803 179.619 98.0602 179.827C98.0557 179.887 98.0423 179.944 98.0379 180.004L90.8458 180.005L90.8457 180.001ZM103.188 179.191C103.251 178.771 103.303 178.346 103.388 177.933C103.4 177.875 103.418 177.82 103.431 177.763C103.983 175.191 104.981 172.781 106.336 170.616C106.394 170.523 106.446 170.426 106.505 170.334C106.78 169.908 107.078 169.499 107.38 169.094C107.503 168.929 107.62 168.761 107.747 168.598C108.028 168.243 108.324 167.903 108.625 167.564C108.762 167.411 108.899 167.256 109.042 167.106C109.047 167.102 109.052 167.102 109.057 167.096V167.094C109.587 166.531 110.139 166.003 110.712 165.503C110.756 165.465 110.802 165.431 110.847 165.393C111.339 164.97 111.847 164.578 112.367 164.203C112.544 164.076 112.73 163.953 112.912 163.83C113.301 163.566 113.699 163.316 114.104 163.078C114.371 162.921 114.641 162.768 114.916 162.623C115.251 162.445 115.589 162.28 115.931 162.118C116.258 161.965 116.586 161.814 116.92 161.676C117.235 161.547 117.556 161.434 117.872 161.319C118.233 161.192 118.59 161.061 118.957 160.949C119.292 160.848 119.633 160.769 119.97 160.684C120.327 160.594 120.679 160.499 121.044 160.426C121.457 160.344 121.879 160.291 122.297 160.234C122.597 160.192 122.891 160.137 123.194 160.107C123.934 160.041 124.674 160.001 125.42 160.001C126.116 160.001 126.803 160.036 127.481 160.098C127.931 160.141 128.376 160.213 128.823 160.281C129.041 160.314 129.261 160.336 129.476 160.374C130.043 160.479 130.604 160.612 131.159 160.761C131.244 160.783 131.332 160.799 131.417 160.824C132.024 160.993 132.625 161.191 133.217 161.411C133.247 161.421 133.28 161.431 133.31 161.443C133.92 161.673 134.52 161.931 135.11 162.213C135.122 162.218 135.135 162.223 135.148 162.231C135.741 162.516 136.321 162.828 136.886 163.166C136.896 163.174 136.908 163.178 136.918 163.184C137.478 163.519 138.025 163.882 138.558 164.264C138.576 164.277 138.592 164.287 138.61 164.299C139.135 164.682 139.645 165.087 140.14 165.517C140.16 165.534 140.183 165.551 140.203 165.569C141.413 166.627 142.495 167.801 143.438 169.065C143.478 169.117 143.513 169.175 143.553 169.227C143.963 169.785 144.346 170.363 144.701 170.953C144.771 171.07 144.838 171.191 144.908 171.31C145.223 171.855 145.513 172.413 145.781 172.983C145.846 173.12 145.91 173.255 145.971 173.396C146.228 173.973 146.458 174.563 146.666 175.161C146.711 175.29 146.761 175.415 146.803 175.546C147.019 176.198 147.198 176.863 147.351 177.536C147.369 177.613 147.394 177.691 147.411 177.768C147.571 178.501 147.691 179.246 147.775 180.001H103.067C103.097 179.729 103.147 179.461 103.187 179.191L103.188 179.191ZM122.501 55.0023C152.827 55.0023 177.501 79.6752 177.501 110.002C177.501 126.629 170.14 142.097 157.261 152.608C156.941 152.573 156.628 152.586 156.311 152.568C156.013 152.553 155.723 152.503 155.42 152.503C155.338 152.503 155.261 152.521 155.178 152.521C154.499 152.525 153.833 152.583 153.174 152.666C153.071 152.678 152.966 152.681 152.866 152.696C148.776 153.283 145.114 155.309 142.41 158.341C142.231 158.541 142.073 158.764 141.9 158.974C141.638 159.297 141.358 159.604 141.116 159.95C141.098 159.937 141.081 159.927 141.063 159.917C140.69 159.659 140.303 159.422 139.918 159.182C139.636 159.007 139.353 158.829 139.066 158.664C138.67 158.436 138.273 158.224 137.866 158.017C137.565 157.864 137.261 157.719 136.956 157.579C136.549 157.389 136.141 157.2 135.721 157.029C135.353 156.879 134.975 156.751 134.603 156.619C133.988 156.402 133.368 156.202 132.733 156.027C132.275 155.899 131.818 155.774 131.356 155.672C131.019 155.597 130.676 155.534 130.333 155.472C129.819 155.377 129.303 155.299 128.783 155.234C128.491 155.2 128.203 155.159 127.908 155.132C127.083 155.057 126.253 155.007 125.418 155.007C124.563 155.007 123.716 155.059 122.876 155.136C122.666 155.156 122.456 155.181 122.246 155.206C121.541 155.287 120.843 155.394 120.154 155.527C120.024 155.551 119.894 155.571 119.764 155.599C118.085 155.95 116.452 156.462 114.879 157.117C114.769 157.165 114.659 157.212 114.546 157.26C113.857 157.56 113.179 157.885 112.514 158.24C112.424 158.288 112.331 158.332 112.24 158.383C111.556 158.758 110.887 159.155 110.237 159.59C110.12 158.715 109.945 157.845 109.723 156.988C109.695 156.885 109.656 156.786 109.628 156.68C109.416 155.902 109.176 155.129 108.892 154.367C108.78 154.067 108.642 153.774 108.52 153.478C108.292 152.923 108.068 152.367 107.808 151.825C107.645 151.484 107.463 151.157 107.29 150.822C107.038 150.335 106.788 149.85 106.515 149.375C106.315 149.03 106.106 148.695 105.895 148.355C105.62 147.909 105.347 147.465 105.06 147.03C104.834 146.69 104.602 146.363 104.368 146.03C104.078 145.617 103.791 145.21 103.493 144.812C103.247 144.485 103.003 144.169 102.753 143.853C102.455 143.473 102.158 143.098 101.856 142.732C101.603 142.424 101.351 142.129 101.098 141.835C100.798 141.484 100.501 141.145 100.2 140.812C99.946 140.53 99.6982 140.254 99.446 139.985C99.1514 139.668 98.8634 139.363 98.5733 139.066C98.3255 138.808 98.0833 138.558 97.8411 138.316C97.561 138.036 97.2931 137.771 97.0241 137.508C96.7886 137.28 96.5621 137.058 96.3367 136.845C96.0788 136.603 95.8389 136.379 95.5967 136.157C95.3847 135.962 95.1737 135.768 94.9739 135.587C94.7463 135.382 94.5443 135.204 94.3367 135.022C94.157 134.865 93.9739 134.702 93.8087 134.562C93.6112 134.393 93.4483 134.258 93.2764 134.115C93.1413 134.002 92.9985 133.879 92.8813 133.784C92.7161 133.647 92.5967 133.555 92.4717 133.452C92.3947 133.389 92.302 133.315 92.2395 133.264C92.0822 133.139 91.9717 133.057 91.927 133.022C91.3924 132.613 90.7194 132.44 90.0543 132.534H90.052C89.9047 132.557 89.7775 132.637 89.6369 132.682C89.4639 132.74 89.2797 132.772 89.1223 132.865C89.1145 132.869 89.1101 132.879 89.1 132.885C88.8299 133.052 88.5855 133.268 88.3924 133.528C88.1525 133.855 85.0776 138.103 82.3153 143.677C82.3052 143.697 82.2952 143.72 82.2851 143.74C81.9179 144.482 81.5597 145.244 81.2126 146.028C81.188 146.086 81.1579 146.14 81.1322 146.197C72.3208 136.153 67.5005 123.443 67.5005 110.003C67.5005 79.6773 92.1734 55.003 122.501 55.003L122.501 55.0023ZM67.5666 168.719C64.8791 164.217 64.8065 155.639 65.1469 150.54C68.2241 151.285 73.4841 152.8 78.2272 155.34C78.2172 155.405 78.215 155.463 78.2049 155.528C78.1 156.16 78.0319 156.788 77.9828 157.413C77.9705 157.578 77.9404 157.75 77.9304 157.91C77.8857 158.673 77.8779 159.428 77.9259 160.165C77.9929 161.207 78.1212 162.26 78.2786 163.318C78.3266 163.632 78.3835 163.945 78.4382 164.26C78.5732 165.038 78.7283 165.81 78.9058 166.584C78.9784 166.899 79.0487 167.212 79.1279 167.526C79.3701 168.486 79.6402 169.439 79.9449 170.379C79.9728 170.464 79.9951 170.552 80.0219 170.637C80.3589 171.659 80.7373 172.655 81.1391 173.629C81.254 173.907 81.3768 174.174 81.4962 174.446C81.8043 175.148 82.1235 175.831 82.4583 176.499C82.6056 176.791 82.7507 177.079 82.9036 177.364C83.2887 178.079 83.6882 178.766 84.1034 179.424C84.206 179.587 84.3009 179.764 84.4058 179.922C84.4237 179.946 84.4382 179.976 84.456 180.004H78.928C74.2518 177.097 70.1346 173.016 67.5663 168.72L67.5666 168.719ZM182.501 195.002H67.5009C61.4629 195.002 56.4137 190.699 55.2532 185.002H194.747C193.587 190.699 188.538 195.002 182.5 195.002H182.501Z" fill="#689F38"/>
<path d="M122.92 165.001H127.92V172.501H122.92V165.001Z" fill="#689F38"/>
<path d="M108.651 171.77L112.187 168.234L117.186 173.233L113.65 176.769L108.651 171.77Z" fill="#689F38"/>
<path d="M133.651 173.233L138.65 168.234L142.186 171.769L137.187 176.768L133.651 173.233Z" fill="#689F38"/>
</svg>
