<svg width="250" height="250" viewBox="0 0 250 250" fill="none" xmlns="http://www.w3.org/2000/svg">
<path d="M123.66 137.898H128.739C132.941 137.898 136.359 134.479 136.359 130.278V122.658C136.359 121.257 135.221 120.118 133.819 120.118H118.58C117.178 120.118 116.04 121.257 116.04 122.658V130.278C116.04 134.479 119.458 137.898 123.66 137.898ZM121.12 125.198H131.279V130.278C131.279 131.677 130.139 132.818 128.739 132.818H123.66C122.26 132.818 121.12 131.677 121.12 130.278V125.198Z" fill="#689F38"/>
<path d="M50 69.3185V87.0983C50 96.0371 56.6368 103.436 65.2399 104.675V201.398H70.3199V127.738H100.8C102.547 127.738 104.257 127.436 105.88 126.847V183.873C100.091 185.052 95.7197 190.185 95.7197 196.317V198.857C95.7197 200.259 96.8582 201.397 98.2597 201.397H154.139C155.541 201.397 156.679 200.259 156.679 198.857V196.317C156.679 190.182 152.308 185.053 146.519 183.873V126.847C148.142 127.436 149.852 127.738 151.599 127.738H173.522L178.98 148.777C179.646 151.346 181.965 153.138 184.619 153.138C187.274 153.138 189.593 151.345 190.256 148.777L199.624 112.678C200.48 109.591 199.86 106.36 197.924 103.81C195.986 101.262 193.037 99.7997 189.835 99.7997H187.282C187.534 96.2516 188.167 92.5711 189.212 91.1353C191.295 88.2801 194.221 87.3105 195.384 87.0261L194.175 82.0936C192.059 82.6118 188.067 84.087 185.107 88.1442C184.927 88.3937 184.78 88.701 184.62 88.9845C184.46 88.6999 184.312 88.3925 184.132 88.1442C181.17 84.0881 177.18 82.6117 175.064 82.0936L173.856 87.0261C175.019 87.3107 177.944 88.2813 180.028 91.1353C181.074 92.5709 181.707 96.2504 181.957 99.7997H179.405C176.202 99.7997 173.256 101.262 171.316 103.81C169.941 105.619 169.266 107.776 169.271 109.96H161.184C159.427 109.96 157.819 109.071 156.884 107.582L151.602 99.1999C149.434 94.8694 145.083 92.1796 140.242 92.1796H138.622C141.924 88.9491 143.98 84.4532 143.98 79.4797C143.98 77.755 143.702 76.0486 143.206 74.3998H151.6V69.3198H143.2L136.197 50.6487C135.827 49.6577 134.879 49 133.82 49H118.581C117.521 49 116.573 49.6577 116.2 50.6487L109.201 69.3198H100.801V74.3998H109.195C108.699 76.0485 108.421 77.7552 108.421 79.4797C108.421 84.4532 110.477 88.9491 113.779 92.1796H112.159C107.318 92.1796 102.964 94.8693 100.801 99.1999L96.8251 107.152C95.9599 108.883 94.2171 109.96 92.2816 109.96H70.321V104.677C78.9242 103.438 85.5609 96.0387 85.5609 87.0999V69.3201H80.481V87.0999C80.481 93.231 76.1096 98.3621 70.321 99.5435V69.3192H65.2411V99.5435C59.4525 98.362 55.0811 93.231 55.0811 87.0999V69.3201L50 69.3185ZM133.819 97.2583V107.418H118.58V97.2583H133.819ZM117.477 112.498H134.922L141.439 123.361V173.458H128.74V150.599H123.66V173.458H110.96V123.361L117.477 112.498ZM108.42 188.698C109.821 188.698 110.96 187.559 110.96 186.158V178.538H123.66V196.318H100.8C100.8 192.116 104.218 188.698 108.42 188.698ZM151.599 196.318H128.74V178.538H141.439V186.158C141.439 187.559 142.578 188.698 143.979 188.698C148.181 188.698 151.599 192.116 151.599 196.318ZM175.359 106.884C176.326 105.61 177.802 104.877 179.402 104.877H189.831C191.431 104.877 192.907 105.608 193.875 106.884C194.842 108.159 195.152 109.774 194.715 111.36L185.335 147.503C185.167 148.156 184.067 148.156 183.897 147.503L177.943 124.565V124.56L174.646 111.86C174.646 111.858 174.643 111.858 174.643 111.856L174.504 111.317C174.081 109.774 174.392 108.158 175.359 106.884L175.359 106.884ZM147.177 101.684L152.579 110.281C154.452 113.259 157.667 115.037 161.183 115.037H170.229L172.207 122.657H151.599C149.537 122.657 147.546 121.989 145.806 120.762L138.9 109.254V97.257H140.241C143.144 97.257 145.757 98.8696 147.177 101.684ZM120.34 54.0774H132.059L137.774 69.3173H114.625L120.34 54.0774ZM113.5 79.4772C113.5 77.7321 113.868 75.9996 114.569 74.3973H137.828C138.531 75.9995 138.9 77.732 138.9 79.4772C138.9 86.4803 133.203 92.1772 126.2 92.1772C119.197 92.1772 113.5 86.4803 113.5 79.4772ZM92.2807 115.037C96.1519 115.037 99.6365 112.886 101.369 109.421L105.345 101.468C106.642 98.8693 109.253 97.2568 112.158 97.2568H113.5V109.254L106.593 120.762C104.854 121.989 102.862 122.657 100.8 122.657H70.3202V115.037L92.2807 115.037Z" fill="#689F38"/>
</svg>
