<svg width="24" height="24" viewBox="0 0 24 24" fill="none" xmlns="http://www.w3.org/2000/svg">
<path d="M12 5.99976C13.8387 5.99366 15.6418 6.50653 17.2021 7.47942C18.7623 8.45231 20.0163 9.84574 20.82 11.4995C20.0107 13.1486 18.7552 14.5377 17.1962 15.5092C15.6371 16.4808 13.837 16.9957 12 16.9957C10.163 16.9957 8.36286 16.4808 6.80383 15.5092C5.2448 14.5377 3.98935 13.1486 3.18001 11.4995C3.98368 9.84574 5.23772 8.45231 6.79796 7.47942C8.3582 6.50653 10.1613 5.99366 12 5.99976ZM12 3.99951C9.62543 4.00084 7.30624 4.71694 5.34429 6.05461C3.38234 7.39227 1.86848 9.28955 0.999756 11.4995C1.86747 13.71 3.38105 15.6078 5.34317 16.9455C7.30529 18.2831 9.62492 18.9986 11.9996 18.9986C14.3743 18.9986 16.694 18.2831 18.6561 16.9455C20.6182 15.6078 22.1318 13.71 22.9995 11.4995C22.1308 9.28967 20.6171 7.39247 18.6553 6.05482C16.6935 4.71716 14.3745 4.00099 12 3.99951ZM12 8.99976C12.4944 8.99991 12.9776 9.14664 13.3886 9.42141C13.7996 9.69618 14.1199 10.0866 14.3089 10.5434C14.498 11.0002 14.5474 11.5028 14.4509 11.9876C14.3543 12.4725 14.1162 12.9178 13.7666 13.2674C13.417 13.6169 12.9715 13.8549 12.4867 13.9513C12.0018 14.0477 11.4992 13.9981 11.0425 13.8089C10.5857 13.6197 10.1954 13.2993 9.92074 12.8882C9.6461 12.4772 9.49951 11.9939 9.49951 11.4995C9.4999 10.8367 9.7634 10.2011 10.2321 9.73236C10.7008 9.26365 11.3364 9.00016 11.9993 8.99976H12ZM11.9993 6.99951C11.1092 6.99951 10.2392 7.26343 9.49919 7.7579C8.75917 8.25237 8.18239 8.95517 7.8418 9.77744C7.5012 10.5997 7.41209 11.5045 7.58572 12.3774C7.75936 13.2503 8.18794 14.0522 8.81728 14.6815C9.44661 15.3108 10.2484 15.7394 11.1213 15.913C11.9943 16.0867 12.8991 15.9976 13.7213 15.657C14.5436 15.3164 15.2464 14.7396 15.7409 13.9996C16.2353 13.2596 16.4993 12.3895 16.4993 11.4995C16.4975 10.3067 16.0229 9.16327 15.1795 8.31977C14.3362 7.47626 13.1928 7.0015 12 6.99951H11.9993Z" fill="#E3E9E9"/>
</svg>
