<svg width="24" height="24" viewBox="0 0 24 24" fill="none" xmlns="http://www.w3.org/2000/svg">
<g clip-path="url(#clip0_707_698)">
<g clip-path="url(#clip1_707_698)">
<path d="M12 6.00001C13.8387 5.9939 15.6418 6.50677 17.2021 7.47966C18.7623 8.45256 20.0163 9.84598 20.82 11.4998C20.0107 13.1488 18.7552 14.538 17.1962 15.5095C15.6371 16.481 13.837 16.996 12 16.996C10.163 16.996 8.36287 16.481 6.80383 15.5095C5.2448 14.538 3.98935 13.1488 3.18001 11.4998C3.98368 9.84598 5.23772 8.45256 6.79796 7.47966C8.3582 6.50677 10.1613 5.9939 12 6.00001V6.00001ZM12 3.99976C9.62543 4.00109 7.30624 4.71718 5.34429 6.05485C3.38234 7.39251 1.86848 9.2898 0.999756 11.4998C1.86747 13.7103 3.38105 15.6081 5.34317 16.9457C7.30529 18.2834 9.62492 18.9989 11.9996 18.9989C14.3743 18.9989 16.694 18.2834 18.6561 16.9457C20.6182 15.6081 22.1318 13.7103 22.9995 11.4998C22.1308 9.28991 20.6171 7.39272 18.6553 6.05506C16.6935 4.71741 14.3745 4.00124 12 3.99976V3.99976ZM12 9.00001C12.4944 9.00015 12.9776 9.14689 13.3886 9.42165C13.7996 9.69642 14.1199 10.0869 14.3089 10.5437C14.498 11.0004 14.5474 11.503 14.4509 11.9879C14.3543 12.4727 14.1162 12.9181 13.7666 13.2676C13.417 13.6171 12.9715 13.8551 12.4867 13.9515C12.0018 14.0479 11.4992 13.9984 11.0425 13.8092C10.5857 13.6199 10.1954 13.2995 9.92074 12.8885C9.6461 12.4774 9.49951 11.9941 9.49951 11.4998C9.4999 10.8369 9.7634 10.2013 10.2321 9.7326C10.7008 9.2639 11.3364 9.0004 11.9993 9.00001H12ZM11.9993 6.99976C11.1092 6.99976 10.2392 7.26368 9.49919 7.75814C8.75917 8.25261 8.18239 8.95541 7.8418 9.77768C7.5012 10.5999 7.41209 11.5047 7.58572 12.3777C7.75936 13.2506 8.18794 14.0524 8.81728 14.6817C9.44661 15.3111 10.2484 15.7397 11.1213 15.9133C11.9943 16.0869 12.8991 15.9978 13.7213 15.6572C14.5436 15.3166 15.2464 14.7398 15.7409 13.9998C16.2353 13.2598 16.4993 12.3898 16.4993 11.4998C16.4975 10.307 16.0229 9.16352 15.1795 8.32001C14.3362 7.47651 13.1928 7.00174 12 6.99976H11.9993Z" fill="#00796B"/>
</g>
</g>
<defs>
<clipPath id="clip0_707_698">
<rect width="24" height="24" fill="white"/>
</clipPath>
<clipPath id="clip1_707_698">
<rect width="24" height="24" fill="white"/>
</clipPath>
</defs>
</svg>
