<svg width="40" height="40" viewBox="0 0 40 40" fill="none" xmlns="http://www.w3.org/2000/svg">
<path d="M33.5974 2H5.59902C3.61273 2 2 3.60914 2 5.59543V33.5938C2 35.5837 3.61273 37.1928 5.59902 37.1928H33.5974C35.5873 37.1928 37.2 35.5873 37.2 33.5938V5.59543C37.2 3.60914 35.5873 2 33.5974 2ZM32.9832 9.74759C32.9832 9.74759 27.7714 7.84392 27.7714 11.7159V14.6397H32.8539L32.4049 19.4671H27.7714V35.9249H21.5468V19.4671H18.4973V14.6397H21.5468V11.7159V9.56081C21.5468 9.56081 21.4821 5.63853 26.6005 4.5071C30.1923 3.70971 33.6836 4.8591 33.6836 4.8591L32.9832 9.74759Z" fill="#689F38"/>
</svg>
