<svg width="25" height="24" viewBox="0 0 25 24" fill="none" xmlns="http://www.w3.org/2000/svg">
<path d="M11.3427 18H13.4051V16H11.3427V18ZM12.3739 2C11.0198 2 9.67889 2.25866 8.42783 2.7612C7.17677 3.26375 6.04003 4.00035 5.08251 4.92893C3.14871 6.8043 2.06232 9.34784 2.06232 12C2.06232 14.6522 3.14871 17.1957 5.08251 19.0711C6.04003 19.9997 7.17677 20.7362 8.42783 21.2388C9.67889 21.7413 11.0198 22 12.3739 22C15.1087 22 17.7315 20.9464 19.6653 19.0711C21.5991 17.1957 22.6855 14.6522 22.6855 12C22.6855 10.6868 22.4188 9.38642 21.9006 8.17317C21.3824 6.95991 20.6228 5.85752 19.6653 4.92893C18.7078 4.00035 17.571 3.26375 16.32 2.7612C15.0689 2.25866 13.728 2 12.3739 2ZM12.3739 20C7.8265 20 4.12464 16.41 4.12464 12C4.12464 7.59 7.8265 4 12.3739 4C16.9213 4 20.6232 7.59 20.6232 12C20.6232 16.41 16.9213 20 12.3739 20ZM12.3739 6C11.28 6 10.2309 6.42143 9.45735 7.17157C8.68383 7.92172 8.24927 8.93913 8.24927 10H10.3116C10.3116 9.46957 10.5289 8.96086 10.9156 8.58579C11.3024 8.21071 11.8269 8 12.3739 8C12.9209 8 13.4454 8.21071 13.8322 8.58579C14.2189 8.96086 14.4362 9.46957 14.4362 10C14.4362 12 11.3427 11.75 11.3427 15H13.4051C13.4051 12.75 16.4985 12.5 16.4985 10C16.4985 8.93913 16.064 7.92172 15.2905 7.17157C14.5169 6.42143 13.4678 6 12.3739 6Z" fill="#004C40"/>
</svg>
