<svg width="40" height="40" viewBox="0 0 40 40" fill="none" xmlns="http://www.w3.org/2000/svg">
<path d="M20.375 6.13871C25.027 6.13871 25.5875 6.13871 27.381 6.25081C29.0625 6.30685 30.0153 6.5871 30.6319 6.86734C31.4165 7.20363 32.0331 7.53992 32.6496 8.15645C33.2661 8.77298 33.6585 9.33347 33.9387 10.1742C34.1629 10.7907 34.4431 11.6875 34.5552 13.425C34.6113 15.2746 34.6673 15.779 34.6673 20.431C34.6673 25.0831 34.6673 25.6435 34.5552 27.4371C34.4992 29.1185 34.219 30.0714 33.9387 30.6879C33.6024 31.4726 33.2661 32.0891 32.6496 32.7056C32.0331 33.3222 31.4726 33.7145 30.6319 33.9948C30.0153 34.219 29.1185 34.4992 27.381 34.6113C25.5315 34.6673 25.027 34.7234 20.375 34.7234C15.723 34.7234 15.1625 34.7234 13.369 34.6113C11.6875 34.5552 10.7347 34.275 10.1181 33.9948C9.33347 33.6585 8.71694 33.3222 8.1004 32.7056C7.48387 32.0891 7.09153 31.5286 6.81129 30.6879C6.5871 30.0714 6.30685 29.1746 6.19476 27.4371C6.13871 25.5875 6.13871 25.027 6.13871 20.375C6.13871 15.723 6.13871 15.1625 6.25081 13.369C6.30685 11.6875 6.5871 10.7347 6.86734 10.1181C7.20363 9.33347 7.53992 8.71694 8.15645 8.1004C8.77298 7.48387 9.33347 7.09153 10.1742 6.81129C10.7907 6.5871 11.6875 6.30685 13.425 6.19476C15.1625 6.13871 15.723 6.13871 20.375 6.13871ZM20.375 3C15.6669 3 15.0504 3 13.2008 3.1121C11.3512 3.22419 10.0621 3.50444 8.99718 3.89677C7.87621 4.34516 6.86734 4.96169 5.91452 5.91452C4.96169 6.86734 4.34516 7.87621 3.89677 8.99718C3.44839 10.1181 3.16815 11.3512 3.1121 13.2008C3 15.0504 3 15.6669 3 20.375C3 25.0831 3 25.6996 3.1121 27.5492C3.22419 29.3988 3.50444 30.6879 3.89677 31.7528C4.34516 32.8738 4.96169 33.8827 5.91452 34.8355C6.86734 35.7883 7.87621 36.4048 8.99718 36.8532C10.1181 37.3016 11.3512 37.5819 13.2008 37.6379C15.0504 37.75 15.6669 37.75 20.375 37.75C25.0831 37.75 25.6996 37.75 27.5492 37.6379C29.3988 37.5258 30.6879 37.2456 31.7528 36.8532C32.8738 36.4048 33.8827 35.7883 34.8355 34.8355C35.7883 33.8827 36.4048 32.8738 36.8532 31.7528C37.3016 30.6319 37.5819 29.3988 37.6379 27.5492C37.75 25.6996 37.75 25.0831 37.75 20.375C37.75 15.6669 37.75 15.0504 37.6379 13.2008C37.5258 11.3512 37.2456 10.0621 36.8532 8.99718C36.4048 7.87621 35.7883 6.86734 34.8355 5.91452C33.8827 4.96169 32.8738 4.34516 31.7528 3.89677C30.6319 3.44839 29.3988 3.16815 27.5492 3.1121C25.6996 3 25.0831 3 20.375 3Z" fill="#689F38"/>
<path d="M20.375 11.4633C15.4427 11.4633 11.4633 15.4428 11.4633 20.375C11.4633 25.3073 15.4427 29.2867 20.375 29.2867C25.3072 29.2867 29.2866 25.3073 29.2866 20.375C29.2866 15.4428 25.3072 11.4633 20.375 11.4633ZM20.375 26.148C17.1802 26.148 14.602 23.5698 14.602 20.375C14.602 17.1803 17.1802 14.602 20.375 14.602C23.5697 14.602 26.1479 17.1803 26.1479 20.375C26.1479 23.5698 23.5697 26.148 20.375 26.148Z" fill="#689F38"/>
<path d="M29.623 13.2008C30.7683 13.2008 31.6968 12.2723 31.6968 11.127C31.6968 9.98169 30.7683 9.05322 29.623 9.05322C28.4777 9.05322 27.5492 9.98169 27.5492 11.127C27.5492 12.2723 28.4777 13.2008 29.623 13.2008Z" fill="#689F38"/>
</svg>
