<svg width="29" height="16" viewBox="0 0 29 16" fill="none" xmlns="http://www.w3.org/2000/svg">
<path d="M24.7173 3.66305C23.0241 3.00119 21.6341 1.73879 20.8128 0.116979L20.7653 0.0229388L20.7179 0.116979C19.8966 1.73879 18.5066 3.00119 16.8134 3.66305C15.7093 4.10226 14.7497 4.84071 14.0423 5.79542C13.3349 6.75013 12.9079 7.88326 12.8092 9.06736V1.61834C12.8089 1.40272 12.7656 1.18933 12.6818 0.990668C12.5979 0.79201 12.4752 0.612075 12.321 0.461451C12.1667 0.310828 11.9838 0.192527 11.7832 0.113496C11.5826 0.0344656 11.3682 -0.00371564 11.1527 0.00120695C10.7269 0.0164649 10.3238 0.19712 10.0291 0.504768C9.73435 0.812416 9.57114 1.22286 9.57413 1.6489V5.03343C9.57413 5.39155 9.43187 5.73498 9.17865 5.98821C8.92542 6.24143 8.58197 6.3837 8.22385 6.3837H4.58535C4.22724 6.3837 3.88379 6.24143 3.63056 5.98821C3.37733 5.73498 3.23507 5.39155 3.23507 5.03343V1.64807C3.23806 1.22203 3.07486 0.811631 2.78012 0.503983C2.48538 0.196335 2.08232 0.01568 1.65654 0.000422051C1.44097 -0.00450053 1.22659 0.0336807 1.02598 0.112711C0.825357 0.191742 0.642539 0.310043 0.488247 0.460666C0.333955 0.61129 0.211298 0.791176 0.127464 0.989834C0.0436294 1.18849 0.000305261 1.40193 4.04315e-05 1.61756V14.3519C-0.0029519 14.778 0.160257 15.1884 0.454999 15.496C0.749741 15.8037 1.1528 15.9843 1.57858 15.9996C1.79415 16.0045 2.00853 15.9663 2.20915 15.8873C2.40977 15.8083 2.59257 15.69 2.74686 15.5393C2.90115 15.3887 3.02382 15.2088 3.10766 15.0101C3.19149 14.8115 3.2348 14.5981 3.23507 14.3824V10.9674C3.23507 10.6093 3.37733 10.2658 3.63056 10.0126C3.88379 9.75935 4.22724 9.61713 4.58535 9.61713H8.22385C8.58197 9.61713 8.92542 9.75935 9.17865 10.0126C9.43187 10.2658 9.57413 10.6093 9.57413 10.9674V14.3519C9.57114 14.778 9.73435 15.1884 10.0291 15.496C10.3238 15.8037 10.7269 15.9843 11.1527 15.9996C11.3682 16.0045 11.5826 15.9663 11.7832 15.8873C11.9838 15.8083 12.1667 15.69 12.321 15.5393C12.4752 15.3887 12.5979 15.2088 12.6818 15.0101C12.7656 14.8115 12.8089 14.5981 12.8092 14.3824V10.1227C12.9424 11.7179 13.6703 13.2049 14.8485 14.2887C16.0266 15.3725 17.5691 15.974 19.1699 15.9739H22.3616C23.1997 15.9739 24.0297 15.8088 24.804 15.488C25.5784 15.1673 26.282 14.6972 26.8746 14.1045C27.4673 13.5118 27.9374 12.8082 28.2582 12.0338C28.5789 11.2595 28.744 10.4295 28.744 9.59138C28.743 8.31377 28.3587 7.06588 27.6409 6.00901C26.923 4.95214 25.9046 4.13492 24.7173 3.66305ZM22.3608 12.8763H19.1691C18.4059 12.8763 17.6666 12.6102 17.0784 12.1238C16.4903 11.6374 16.0901 10.9612 15.9467 10.2116C15.8034 9.46197 15.9259 8.68583 16.2931 8.01678C16.6603 7.34773 17.2493 6.82762 17.9587 6.54603C18.9723 6.14405 19.9185 5.58953 20.7645 4.90162C21.6106 5.58951 22.5568 6.14402 23.5704 6.54603C24.2797 6.82762 24.8687 7.34773 25.236 8.01678C25.6032 8.68583 25.7257 9.46197 25.5824 10.2116C25.439 10.9612 25.0388 11.6374 24.4506 12.1238C23.8625 12.6102 23.1232 12.8763 22.36 12.8763H22.3608Z" fill="white"/>
</svg>
