<svg width="50" height="50" viewBox="0 0 50 50" fill="none" xmlns="http://www.w3.org/2000/svg">
<path d="M40.9762 18.4946C38.4433 17.5018 36.3638 15.6082 35.1351 13.1755L35.0642 13.0344L34.9932 13.1755C33.7645 15.6082 31.6851 17.5018 29.1522 18.4946C27.5006 19.1534 26.065 20.2611 25.0067 21.6931C23.9485 23.1252 23.3097 24.8249 23.162 26.601V15.4275C23.1616 15.1041 23.0969 14.784 22.9714 14.486C22.846 14.188 22.6625 13.9181 22.4317 13.6922C22.2009 13.4662 21.9274 13.2888 21.6273 13.1702C21.3272 13.0517 21.0065 12.9944 20.684 13.0018C20.047 13.0247 19.4441 13.2957 19.0032 13.7572C18.5622 14.2186 18.3181 14.8343 18.3226 15.4734V20.5501C18.3226 21.0873 18.1097 21.6025 17.7309 21.9823C17.3521 22.3622 16.8383 22.5756 16.3026 22.5756H10.8595C10.3238 22.5756 9.81 22.3622 9.43118 21.9823C9.05237 21.6025 8.83954 21.0873 8.83954 20.5501V15.4721C8.84402 14.833 8.59989 14.2174 8.15896 13.756C7.71804 13.2945 7.11508 13.0235 6.47813 13.0006C6.15565 12.9932 5.83494 13.0505 5.53482 13.1691C5.2347 13.2876 4.96121 13.4651 4.7304 13.691C4.49958 13.9169 4.31609 14.1868 4.19068 14.4848C4.06527 14.7827 4.00046 15.1029 4.00006 15.4263V34.5279C3.99558 35.167 4.23974 35.7826 4.68066 36.244C5.12158 36.7055 5.72455 36.9765 6.3615 36.9994C6.68398 37.0068 7.00469 36.9495 7.3048 36.8309C7.60492 36.7124 7.87839 36.5349 8.10921 36.309C8.34002 36.0831 8.52353 35.8132 8.64894 35.5152C8.77436 35.2172 8.83915 34.8971 8.83954 34.5737V29.4511C8.83954 28.9139 9.05237 28.3987 9.43118 28.0189C9.81 27.639 10.3238 27.4257 10.8595 27.4257H16.3026C16.8383 27.4257 17.3521 27.639 17.7309 28.0189C18.1097 28.3987 18.3226 28.9139 18.3226 29.4511V34.5279C18.3181 35.167 18.5622 35.7826 19.0032 36.244C19.4441 36.7055 20.047 36.9765 20.684 36.9994C21.0065 37.0068 21.3272 36.9495 21.6273 36.8309C21.9274 36.7124 22.2009 36.5349 22.4317 36.309C22.6625 36.0831 22.846 35.8132 22.9714 35.5152C23.0969 35.2172 23.1616 34.8971 23.162 34.5737V28.184C23.3614 30.5769 24.4503 32.8074 26.2128 34.433C27.9753 36.0587 30.2827 36.961 32.6775 36.9608H37.4521C38.7059 36.9608 39.9475 36.7132 41.1059 36.232C42.2643 35.7509 43.3169 35.0457 44.2035 34.1567C45.0901 33.2677 45.7934 32.2123 46.2732 31.0508C46.753 29.8892 47 28.6443 47 27.3871C46.9985 25.4707 46.4236 23.5988 45.3497 22.0135C44.2758 20.4282 42.7523 19.2024 40.9762 18.4946ZM37.4509 32.3144H32.6763C31.5346 32.3144 30.4286 31.9153 29.5487 31.1857C28.6688 30.4562 28.0702 29.4418 27.8557 28.3174C27.6413 27.193 27.8245 26.0287 28.3739 25.0252C28.9233 24.0216 29.8044 23.2414 30.8655 22.819C32.3819 22.2161 33.7974 21.3843 35.063 20.3524C36.3286 21.3843 37.7441 22.216 39.2604 22.819C40.3216 23.2414 41.2027 24.0216 41.7521 25.0252C42.3015 26.0287 42.4847 27.193 42.2703 28.3174C42.0558 29.4418 41.4571 30.4562 40.5773 31.1857C39.6974 31.9153 38.5914 32.3144 37.4497 32.3144H37.4509Z" fill="#222627"/>
</svg>
