<svg width="12" height="12" viewBox="0 0 12 12" fill="none" xmlns="http://www.w3.org/2000/svg">
<path d="M5.99984 10.6665C4.76216 10.6665 3.57518 10.1748 2.70001 9.29967C1.82484 8.4245 1.33317 7.23751 1.33317 5.99984C1.33317 4.76216 1.82484 3.57518 2.70001 2.70001C3.57518 1.82484 4.76216 1.33317 5.99984 1.33317C7.23751 1.33317 8.4245 1.82484 9.29967 2.70001C10.1748 3.57518 10.6665 4.76216 10.6665 5.99984C10.6665 7.23751 10.1748 8.4245 9.29967 9.29967C8.4245 10.1748 7.23751 10.6665 5.99984 10.6665ZM5.99984 0.166504C5.23379 0.166504 4.47525 0.317388 3.76752 0.61054C3.05978 0.903692 2.41672 1.33337 1.87505 1.87505C0.781085 2.96901 0.166504 4.45274 0.166504 5.99984C0.166504 7.54693 0.781085 9.03067 1.87505 10.1246C2.41672 10.6663 3.05978 11.096 3.76752 11.3891C4.47525 11.6823 5.23379 11.8332 5.99984 11.8332C7.54693 11.8332 9.03067 11.2186 10.1246 10.1246C11.2186 9.03067 11.8332 7.54693 11.8332 5.99984C11.8332 5.23379 11.6823 4.47525 11.3891 3.76752C11.096 3.05978 10.6663 2.41672 10.1246 1.87505C9.58295 1.33337 8.93989 0.903692 8.23216 0.61054C7.52443 0.317388 6.76588 0.166504 5.99984 0.166504Z" fill="#222627" fill-opacity="0.7"/>
</svg>
