<svg width="40" height="40" viewBox="0 0 40 40" fill="none" xmlns="http://www.w3.org/2000/svg">
<path d="M19.6 2C9.88049 2 2 9.8769 2 19.6C2 29.3231 9.88049 37.2 19.6 37.2C29.3195 37.2 37.2 29.3231 37.2 19.6C37.2 9.8769 29.3195 2 19.6 2ZM28.8167 16.45C28.8238 16.626 28.8274 16.8056 28.8274 16.9851C28.8274 22.4555 24.6609 28.77 17.0426 28.77C14.7043 28.77 12.5277 28.0839 10.6922 26.9094C11.0155 26.9489 11.346 26.9669 11.68 26.9669C13.6196 26.9669 15.4047 26.306 16.8235 25.1961C15.0132 25.1602 13.4831 23.9641 12.9551 22.319C13.2065 22.3657 13.4651 22.3909 13.7345 22.3909C14.1117 22.3909 14.478 22.3406 14.8265 22.2436C12.9336 21.8629 11.504 20.1855 11.504 18.1776C11.504 18.1633 11.504 18.1453 11.504 18.1273C12.0643 18.4362 12.7001 18.623 13.3825 18.6446C12.2727 17.9011 11.5399 16.6367 11.5399 15.1964C11.5399 14.4385 11.7447 13.7273 12.1002 13.1131C14.1404 15.6202 17.1971 17.2689 20.638 17.4413C20.5662 17.1396 20.5303 16.8235 20.5303 16.4967C20.5303 14.2087 22.3837 12.3553 24.6717 12.3553C25.8606 12.3553 26.9381 12.8581 27.696 13.6627C28.6371 13.4759 29.5242 13.1311 30.3252 12.6606C30.0163 13.6268 29.3554 14.4385 28.5042 14.9486C29.3411 14.848 30.1385 14.6253 30.882 14.2984C30.3288 15.1353 29.6248 15.8681 28.8167 16.45Z" fill="#689F38"/>
</svg>
