<svg width="24" height="24" viewBox="0 0 24 24" fill="none" xmlns="http://www.w3.org/2000/svg">
<path d="M12 2.00049C10.0222 2.00049 8.08889 2.58696 6.44444 3.68575C4.79998 4.78454 3.51829 6.34628 2.76143 8.1735C2.00458 10.0007 1.80655 12.0113 2.19239 13.9511C2.57823 15.8909 3.53062 17.6726 4.92911 19.0711C6.3276 20.4696 8.10938 21.422 10.0491 21.8078C11.9889 22.1937 13.9995 21.9957 15.8267 21.2388C17.654 20.4819 19.2157 19.2003 20.3145 17.5558C21.4133 15.9114 21.9997 13.978 21.9997 12.0002C21.9988 9.34844 20.9449 6.80555 19.0698 4.93044C17.1947 3.05534 14.6518 2.00148 12 2.00049ZM7.07025 18.28C7.5 17.38 10.1205 16.5002 12 16.5002C13.8795 16.5002 16.5097 17.38 16.9297 18.28C15.5279 19.3936 13.7903 19.9998 12 19.9998C10.2097 19.9998 8.47207 19.3936 7.07025 18.28ZM18.36 16.8302C16.9297 15.0902 13.4602 14.5 12 14.5C10.5397 14.5 7.07025 15.0902 5.64 16.8302C4.73553 15.6447 4.18045 14.2299 4.03739 12.7456C3.89434 11.2613 4.16901 9.76656 4.83041 8.43009C5.49181 7.09361 6.5136 5.96861 7.78046 5.18205C9.04732 4.39549 10.5088 3.97869 12 3.97869C13.4912 3.97869 14.9527 4.39549 16.2195 5.18205C17.4864 5.96861 18.5082 7.09361 19.1696 8.43009C19.831 9.76656 20.1057 11.2613 19.9626 12.7456C19.8195 14.2299 19.2645 15.6447 18.36 16.8302ZM12 6.00024C11.3077 6.00024 10.631 6.20552 10.0554 6.59014C9.47975 6.97475 9.03112 7.52141 8.76619 8.161C8.50126 8.80059 8.43195 9.50437 8.56701 10.1834C8.70206 10.8623 9.03543 11.486 9.52495 11.9755C10.0145 12.4651 10.6382 12.7984 11.3171 12.9335C11.9961 13.0685 12.6999 12.9992 13.3395 12.7343C13.9791 12.4694 14.5257 12.0207 14.9103 11.4451C15.295 10.8695 15.5002 10.1928 15.5002 9.50049C15.5014 9.0405 15.4117 8.5848 15.2362 8.1596C15.0607 7.73439 14.803 7.34805 14.4777 7.02279C14.1524 6.69753 13.7661 6.43974 13.3409 6.26426C12.9157 6.08878 12.46 5.99905 12 6.00024ZM12 10.9997C11.7033 10.9997 11.4133 10.9118 11.1666 10.7469C10.92 10.5821 10.7277 10.3479 10.6142 10.0738C10.5006 9.79967 10.4709 9.49807 10.5288 9.2071C10.5867 8.91613 10.7296 8.64886 10.9393 8.43908C11.1491 8.2293 11.4164 8.08644 11.7074 8.02856C11.9983 7.97068 12.2999 8.00039 12.574 8.11392C12.8481 8.22745 13.0824 8.41971 13.2472 8.66638C13.412 8.91306 13.5 9.20307 13.5 9.49974C13.5001 9.69678 13.4614 9.89192 13.386 10.074C13.3107 10.2561 13.2002 10.4215 13.0609 10.5609C12.9216 10.7003 12.7562 10.8108 12.5742 10.8862C12.3922 10.9617 12.197 11.0005 12 11.0005V10.9997Z" fill="#E3E9E9"/>
</svg>
