<svg width="24" height="24" viewBox="0 0 24 24" fill="none" xmlns="http://www.w3.org/2000/svg">
<path d="M12 21.9995C12.53 21.9979 13.0379 21.7867 13.4127 21.4119C13.7874 21.0371 13.9987 20.5293 14.0003 19.9993H10.0005C10.0021 20.5291 10.2133 21.0369 10.5879 21.4116C10.9625 21.7864 11.4701 21.9977 12 21.9995ZM18 15.9995V10.9993C18 7.92951 16.3703 5.35926 13.5 4.67901V3.99951C13.5 3.60169 13.342 3.22016 13.0607 2.93885C12.7794 2.65755 12.3978 2.49951 12 2.49951C11.6022 2.49951 11.2207 2.65755 10.9394 2.93885C10.6581 3.22016 10.5 3.60169 10.5 3.99951V4.67976C7.64027 5.36001 6.00002 7.91976 6.00002 11V15.9995L4.00052 17.9998V18.9995H20.0003V17.9998L18 15.9995ZM15.9998 16.9993H8.00027V10.9993C8.00027 8.51901 9.51002 6.49926 12 6.49926C14.49 6.49926 15.9998 8.51901 15.9998 10.9993V16.9993ZM7.58027 4.07976L6.15002 2.64951C4.92858 3.57482 3.92615 4.75802 3.21408 6.11488C2.50201 7.47174 2.09782 8.9689 2.03027 10.4998H4.03277C4.10337 9.2318 4.459 7.99607 5.0732 6.88455C5.68739 5.77302 6.54434 4.81431 7.58027 4.07976ZM19.9703 10.4998H21.9705C21.8986 8.96976 21.4924 7.47408 20.7805 6.11786C20.0686 4.76164 19.0684 3.57779 17.85 2.64951L16.4303 4.07976C17.4623 4.81764 18.3159 5.77729 18.9285 6.88824C19.541 7.99919 19.897 9.23323 19.9703 10.4998Z" fill="#E3E9E9"/>
</svg>
