<svg width="32" height="32" viewBox="0 0 32 32" fill="none" xmlns="http://www.w3.org/2000/svg">
<path d="M10.564 21.2814H21.127V23.9224H10.564V21.2814ZM10.564 15.9994H21.127V18.6404H10.564V15.9994ZM18.482 2.79639H7.92299C7.2232 2.7985 6.55267 3.07742 6.05785 3.57225C5.56302 4.06708 5.2841 4.7376 5.28199 5.43739V26.5634C5.28092 27.2619 5.55704 27.9323 6.04975 28.4274C6.54245 28.9226 7.21148 29.202 7.90999 29.2044H23.767C24.4668 29.2023 25.1373 28.9234 25.6321 28.4285C26.127 27.9337 26.4059 27.2632 26.408 26.5634V10.7184L18.482 2.79639ZM23.764 26.5634H7.92299V5.43739H17.166V12.0374H23.766L23.764 26.5634Z" fill="#E3E9E9"/>
</svg>
